<svg version="1.1" viewBox="0 0 1e3 1e3" xmlns="http://www.w3.org/2000/svg" xmlns:xlink="http://www.w3.org/1999/xlink">
<path id="a" fill="hsl(0,100%,25%)" d="m499.38 0 0.00195 0.0039062c-16.698-1.2675e-4 -33.386 0.83606-50 2.5059-5.3603 0.53875-10.713 1.1634-16.053 1.875-6.2652 0.83494-12.512 1.7893-18.742 2.8613-5.9854 1.0306-11.952 2.17-17.896 3.418-15.963 3.3495-31.751 7.4785-47.311 12.371-155.87 49.018-277.95 171.1-326.97 326.97-4.8935 15.559-9.0228 31.348-12.373 47.311-1.2473 5.9441-2.3861 11.911-3.416 17.896-1.9856 11.539-3.5654 23.143-4.7363 34.793-0.8359 8.3174-1.4631 16.654-1.8809 25 0 41.421 33.579 75 75 75h82.355c-4.7855-15.867-7.3594-32.658-7.3594-50.006 0-17.346 2.5732-34.133 7.3574-49.998h-54.846c2.8256-22.429 7.5465-44.578 14.113-66.209 3.4725-11.436 7.4588-22.711 11.939-33.791 40.646-100.48 120.33-180.16 220.81-220.81 11.078-4.4821 22.352-8.4634 33.787-11.938 21.632-6.5677 43.783-11.29 66.213-14.115 13.925-1.7544 27.933-2.7747 41.965-3.0566 2.6781-0.0536 5.3566-0.08028 8.0352-0.08008 0.92961-9e-5 1.8595 0.00277 2.7891 0.00977 1.084 0.047 2.1689 0.07041 3.2539 0.07031 9.6814 4e-3 35.776-2.2951 56.123-25.248 12.162-13.719 18.877-31.418 18.877-49.752-6.7e-4 -7.4163-1.11-13.849-2.4102-18.861-9.506-1.5143-19.054-2.7521-28.633-3.7148-16.612-1.67-33.298-2.5058-49.994-2.5059zm-174.38 375a125 125 0 0 0-115.33 76.793 125 125 0 0 0-9.6699 48.207 125 125 0 0 0 4.5938 33.576 125 125 0 0 0 120.41 91.424 125 125 0 0 0 125-125 125 125 0 0 0-125-125zm-243.74 241.44c-21.276-3.2e-4 -40.221 13.465-47.219 33.557-1.8412 5.2873-2.7814 10.845-2.7812 16.443-4e-4 6.98 1.4606 13.884 4.2891 20.266v0.00195c33.727 83.814 89.225 156.13 159.67 210.13 37.907 29.059 80.144 52.813 125.65 70.199 7.1745-7.043 22.476-25.367 22.475-53.537 8e-5 -5.736-0.65795-11.453-1.9609-17.039v-0.00195c-7.6008-31.734-23.741-39.082-48.305-53.762-73.784-44.419-131.79-111.82-164.5-192.7h-0.09765c-6.9973-20.091-25.942-33.556-47.217-33.557h-0.003906z"/>
<use transform="rotate(180 500 500)" xlink:href="#a"/>
</svg>